HIERARCHY
ROOT Hips
{
	OFFSET 0.000000 83.214638 0.000000
	CHANNELS 6 Xposition Yposition Zposition Xrotation Yrotation Zrotation
	JOINT Pelvis
	{
		OFFSET 0.000000 0.000000 0.000000
		CHANNELS 3 Xrotation Yrotation Zrotation
		JOINT LeftUpLeg
		{
			OFFSET 8.479700 -4.795502 -0.379100
			CHANNELS 3 Xrotation Yrotation Zrotation
			JOINT LeftLeg
			{
				OFFSET 0.024144 -32.555107 0.112900
				CHANNELS 3 Xrotation Yrotation Zrotation
				JOINT LeftFoot
				{
					OFFSET -0.024144 -32.638630 -3.012600
					CHANNELS 3 Xrotation Yrotation Zrotation
					JOINT LeftToeBase
					{
						OFFSET 0.970200 -13.225400 11.864200
						CHANNELS 3 Xrotation Yrotation Zrotation
						End Site
						{
							OFFSET 0.000000 12.319262 0.000000
						}
					}
					JOINT LFootTongue
					{
						OFFSET 1.142400 -1.059800 6.665200
						CHANNELS 3 Xrotation Yrotation Zrotation
						End Site
						{
							OFFSET 0.000000 12.319262 0.000000
						}
					}
				}
				JOINT LeftPantLeg
				{
					OFFSET 0.918482 -16.533964 -2.284700
					CHANNELS 3 Xrotation Yrotation Zrotation
					End Site
					{
						OFFSET 0.350399 24.744368 0.000000
					}
				}
			}
		}
		JOINT RightUpLeg
		{
			OFFSET -8.479700 -4.795502 -0.379100
			CHANNELS 3 Xrotation Yrotation Zrotation
			JOINT RightLeg
			{
				OFFSET -0.023144 -32.555092 0.112900
				CHANNELS 3 Xrotation Yrotation Zrotation
				JOINT RightFoot
				{
					OFFSET 0.023144 -32.638641 -3.012700
					CHANNELS 3 Xrotation Yrotation Zrotation
					JOINT RightToeBase
					{
						OFFSET -0.970200 -13.225400 11.864200
						CHANNELS 3 Xrotation Yrotation Zrotation
						End Site
						{
							OFFSET 0.000000 12.319244 0.000000
						}
					}
					JOINT RFootTongue
					{
						OFFSET -1.142200 -1.059800 6.665200
						CHANNELS 3 Xrotation Yrotation Zrotation
						End Site
						{
							OFFSET 0.000000 12.319243 0.000000
						}
					}
				}
				JOINT RightPantLeg
				{
					OFFSET -0.919482 -16.533978 -2.284800
					CHANNELS 3 Xrotation Yrotation Zrotation
					End Site
					{
						OFFSET -0.350400 24.744419 0.000000
					}
				}
			}
		}
	}
	JOINT Spine
	{
		OFFSET 0.000000 7.722000 1.166200
		CHANNELS 3 Xrotation Yrotation Zrotation
		JOINT Spine1
		{
			OFFSET 0.000000 12.024101 0.248800
			CHANNELS 3 Xrotation Yrotation Zrotation
			JOINT Spine2
			{
				OFFSET 0.000000 11.502998 -0.491200
				CHANNELS 3 Xrotation Yrotation Zrotation
				JOINT Neck
				{
					OFFSET 0.000000 18.430702 -3.123100
					CHANNELS 3 Xrotation Yrotation Zrotation
					JOINT Head
					{
						OFFSET 0.000000 9.051102 1.034000
						CHANNELS 3 Xrotation Yrotation Zrotation
						JOINT HairB
						{
							OFFSET 0.208400 24.786102 24.822300
							CHANNELS 3 Xrotation Yrotation Zrotation
							End Site
							{
								OFFSET 0.000000 32.263779 0.000000
							}
						}
						JOINT HairA
						{
							OFFSET -7.081100 24.428299 23.196600
							CHANNELS 3 Xrotation Yrotation Zrotation
							End Site
							{
								OFFSET 0.000000 32.263779 0.000000
							}
						}
						JOINT Hat
						{
							OFFSET 16.728800 15.048294 -15.439601
							CHANNELS 3 Xrotation Yrotation Zrotation
							End Site
							{
								OFFSET 0.000000 32.263779 0.000000
							}
						}
					}
				}
				JOINT LeftShoulder
				{
					OFFSET 6.197800 13.665199 -4.064700
					CHANNELS 3 Xrotation Yrotation Zrotation
					JOINT LeftArm
					{
						OFFSET 7.778100 -0.187103 -1.709300
						CHANNELS 3 Xrotation Yrotation Zrotation
						JOINT LeftForeArm
						{
							OFFSET 22.049376 0.000000 0.000000
							CHANNELS 3 Xrotation Yrotation Zrotation
							JOINT LeftHand
							{
								OFFSET 23.009392 0.000000 0.000000
								CHANNELS 3 Xrotation Yrotation Zrotation
								JOINT LeftHandThumb1
								{
									OFFSET 3.507191 -2.063065 3.133727
									CHANNELS 3 Xrotation Yrotation Zrotation
									JOINT LeftHandThumb2
									{
										OFFSET 3.101337 -1.790558 1.790558
										CHANNELS 3 Xrotation Yrotation Zrotation
										JOINT LeftHandThumb3
										{
											OFFSET 3.058640 -1.765907 1.765906
											CHANNELS 3 Xrotation Yrotation Zrotation
											End Site
											{
												OFFSET -0.415260 3.926476 -0.049563
											}
										}
									}
								}
								JOINT LeftHandIndex1
								{
									OFFSET 11.334419 -0.901459 3.706815
									CHANNELS 3 Xrotation Yrotation Zrotation
									JOINT LeftHandIndex2
									{
										OFFSET 3.283112 0.000000 0.000000
										CHANNELS 3 Xrotation Yrotation Zrotation
										JOINT LeftHandIndex3
										{
											OFFSET 3.323853 0.000000 0.000000
											CHANNELS 3 Xrotation Yrotation Zrotation
											End Site
											{
												OFFSET -1.135597 3.097809 0.402452
											}
										}
									}
								}
								JOINT LeftHandMiddle1
								{
									OFFSET 11.335861 0.000000 0.000000
									CHANNELS 3 Xrotation Yrotation Zrotation
									JOINT LeftHandMiddle2
									{
										OFFSET 3.410492 0.000000 0.000000
										CHANNELS 3 Xrotation Yrotation Zrotation
										JOINT LeftHandMiddle3
										{
											OFFSET 3.312172 0.000000 0.000000
											CHANNELS 3 Xrotation Yrotation Zrotation
											End Site
											{
												OFFSET -1.150200 3.080154 0.400270
											}
										}
									}
								}
								JOINT LeftHandRing1
								{
									OFFSET 11.514786 -0.013176 -3.003090
									CHANNELS 3 Xrotation Yrotation Zrotation
									JOINT LeftHandRing2
									{
										OFFSET 3.053307 0.000000 0.000000
										CHANNELS 3 Xrotation Yrotation Zrotation
										JOINT LeftHandRing3
										{
											OFFSET 3.295807 0.000000 0.000000
											CHANNELS 3 Xrotation Yrotation Zrotation
											End Site
											{
												OFFSET -1.281006 3.013344 0.375733
											}
										}
									}
								}
								JOINT LeftHandPinky1
								{
									OFFSET 10.518692 -0.960396 -5.730441
									CHANNELS 3 Xrotation Yrotation Zrotation
									JOINT LeftHandPinky2
									{
										OFFSET 2.861649 0.000000 0.000000
										CHANNELS 3 Xrotation Yrotation Zrotation
										JOINT LeftHandPinky3
										{
											OFFSET 2.863380 0.000000 0.000000
											CHANNELS 3 Xrotation Yrotation Zrotation
											End Site
											{
												OFFSET -0.843597 2.711159 0.369971
											}
										}
									}
								}
							}
							JOINT LSleeve
							{
								OFFSET 6.676277 -0.344902 -1.011730
								CHANNELS 3 Xrotation Yrotation Zrotation
								End Site
								{
									OFFSET 0.000000 14.885353 0.000000
								}
							}
						}
					}
				}
				JOINT RightShoulder
				{
					OFFSET -6.197800 13.665199 -4.064700
					CHANNELS 3 Xrotation Yrotation Zrotation
					JOINT RightArm
					{
						OFFSET -7.778100 -0.187103 -1.709300
						CHANNELS 3 Xrotation Yrotation Zrotation
						JOINT RightForeArm
						{
							OFFSET -22.049376 0.000000 0.000000
							CHANNELS 3 Xrotation Yrotation Zrotation
							JOINT RightHand
							{
								OFFSET -23.009392 0.000000 0.000000
								CHANNELS 3 Xrotation Yrotation Zrotation
								JOINT RightHandThumb1
								{
									OFFSET -3.507191 -2.063065 3.133727
									CHANNELS 3 Xrotation Yrotation Zrotation
									JOINT RightHandThumb2
									{
										OFFSET -3.101337 -1.790558 1.790558
										CHANNELS 3 Xrotation Yrotation Zrotation
										JOINT RightHandThumb3
										{
											OFFSET -3.058640 -1.765907 1.765906
											CHANNELS 3 Xrotation Yrotation Zrotation
											End Site
											{
												OFFSET 0.415260 3.926476 -0.049563
											}
										}
									}
								}
								JOINT RightHandIndex1
								{
									OFFSET -11.334419 -0.901459 3.706815
									CHANNELS 3 Xrotation Yrotation Zrotation
									JOINT RightHandIndex2
									{
										OFFSET -3.283112 0.000000 0.000000
										CHANNELS 3 Xrotation Yrotation Zrotation
										JOINT RightHandIndex3
										{
											OFFSET -3.323853 0.000000 0.000000
											CHANNELS 3 Xrotation Yrotation Zrotation
											End Site
											{
												OFFSET 1.135597 3.097809 0.402452
											}
										}
									}
								}
								JOINT RightHandMiddle1
								{
									OFFSET -11.335861 0.000000 0.000000
									CHANNELS 3 Xrotation Yrotation Zrotation
									JOINT RightHandMiddle2
									{
										OFFSET -3.410492 0.000000 0.000000
										CHANNELS 3 Xrotation Yrotation Zrotation
										JOINT RightHandMiddle3
										{
											OFFSET -3.312172 0.000000 0.000000
											CHANNELS 3 Xrotation Yrotation Zrotation
											End Site
											{
												OFFSET 1.150200 3.080154 0.400270
											}
										}
									}
								}
								JOINT RightHandRing1
								{
									OFFSET -11.514786 -0.013176 -3.003090
									CHANNELS 3 Xrotation Yrotation Zrotation
									JOINT RightHandRing2
									{
										OFFSET -3.053307 0.000000 0.000000
										CHANNELS 3 Xrotation Yrotation Zrotation
										JOINT RightHandRing3
										{
											OFFSET -3.295807 0.000000 0.000000
											CHANNELS 3 Xrotation Yrotation Zrotation
											End Site
											{
												OFFSET 1.281006 3.013344 0.375733
											}
										}
									}
								}
								JOINT RightHandPinky1
								{
									OFFSET -10.518692 -0.960396 -5.730441
									CHANNELS 3 Xrotation Yrotation Zrotation
									JOINT RightHandPinky2
									{
										OFFSET -2.861649 0.000000 0.000000
										CHANNELS 3 Xrotation Yrotation Zrotation
										JOINT RightHandPinky3
										{
											OFFSET -2.863380 0.000000 0.000000
											CHANNELS 3 Xrotation Yrotation Zrotation
											End Site
											{
												OFFSET 0.843597 2.711159 0.369971
											}
										}
									}
								}
							}
							JOINT RSleeve
							{
								OFFSET -6.676277 -0.344902 -1.011730
								CHANNELS 3 Xrotation Yrotation Zrotation
								End Site
								{
									OFFSET 0.000000 14.885353 0.000000
								}
							}
						}
					}
				}
				JOINT Backpack
				{
					OFFSET 0.000000 -2.471497 36.677502
					CHANNELS 3 Xrotation Yrotation Zrotation
					End Site
					{
						OFFSET 0.000000 20.427315 0.000000
					}
				}
				JOINT Hood
				{
					OFFSET 0.000000 18.754097 -10.431000
					CHANNELS 3 Xrotation Yrotation Zrotation
					JOINT Hood1
					{
						OFFSET 0.000000 -5.011002 -7.685901
						CHANNELS 3 Xrotation Yrotation Zrotation
						End Site
						{
							OFFSET 0.000000 9.175140 0.000000
						}
					}
				}
				JOINT LHoodieString
				{
					OFFSET 5.250500 16.397697 3.089900
					CHANNELS 3 Xrotation Yrotation Zrotation
					JOINT LHoodieString1
					{
						OFFSET 0.257700 -6.364304 3.694600
						CHANNELS 3 Xrotation Yrotation Zrotation
						JOINT LHoodieString2
						{
							OFFSET 0.000000 -9.643799 2.679100
							CHANNELS 3 Xrotation Yrotation Zrotation
							End Site
							{
								OFFSET 0.000000 10.009018 0.000000
							}
						}
					}
				}
				JOINT RHoodieString
				{
					OFFSET -5.250500 16.397697 3.089900
					CHANNELS 3 Xrotation Yrotation Zrotation
					JOINT RHoodieString1
					{
						OFFSET -0.257700 -6.364304 3.694600
						CHANNELS 3 Xrotation Yrotation Zrotation
						JOINT RHoodieString2
						{
							OFFSET 0.000000 -9.643799 2.679100
							CHANNELS 3 Xrotation Yrotation Zrotation
							End Site
							{
								OFFSET 0.000000 10.009018 0.000000
							}
						}
					}
				}
			}
			JOINT LBackpack_Strap
			{
				OFFSET 15.223200 -7.719803 -6.610900
				CHANNELS 3 Xrotation Yrotation Zrotation
				End Site
				{
					OFFSET 0.000000 16.040596 0.000000
				}
			}
			JOINT RBackpack_Strap
			{
				OFFSET -15.223000 -7.719803 -6.610900
				CHANNELS 3 Xrotation Yrotation Zrotation
				End Site
				{
					OFFSET 0.000000 16.040596 0.000000
				}
			}
		}
	}
	JOINT BoyFacialAnim_Joint
	{
		OFFSET 1.000000 -82.208099 -1.550900
		CHANNELS 3 Xrotation Yrotation Zrotation
		End Site
		{
			OFFSET 0.000000 30.012791 0.000000
		}
	}
}
MOTION
Frames: 4
Frame Time: 0.033333
-1.352293 72.803856 242.573227 -4.013777 285.093708 -4.157963 0.000000 0.000002 -0.000000 -1.234672 0.284256 -12.966802 46.584936 -0.820882 -7.425827 -20.979712 -1.979908 21.410191 -0.000001 0.000000 -0.000000 -0.000001 0.000000 -0.000000 -0.000002 0.000001 0.000002 -35.507879 -0.771264 -5.002210 68.468419 -2.431405 1.432484 -24.448676 -8.466936 -5.297099 0.000000 -0.000000 0.000000 0.000000 -0.000000 0.000000 -0.000001 0.000000 -0.000000 16.042933 -5.713732 7.444149 7.209749 -3.071623 3.298957 7.199042 -3.062397 3.331814 15.055829 4.941822 -14.014729 -5.517450 30.110855 -13.715185 0.000001 0.000001 -0.000000 0.000001 0.000001 -0.000000 0.000001 0.000001 -0.000000 2.400532 -2.682444 -3.384760 -3.723636 -12.551671 -47.618470 0.000001 -26.793953 0.000001 -12.578177 -7.068095 17.070099 -9.554036 2.510408 8.068042 7.777207 19.381162 -5.074266 0.000000 -0.000000 0.000001 -3.966708 -0.989777 -46.010265 0.424835 2.385437 -20.193465 -0.000001 -0.000001 -0.000004 -1.414068 0.429416 -37.175565 1.167143 3.840501 -33.797760 0.000000 0.000000 -0.000001 -1.412912 0.430966 -37.191575 1.166061 3.838881 -33.781682 0.000000 -0.000002 -0.000004 1.027133 3.670185 -36.768486 1.179533 -0.225016 -34.208941 0.000002 0.000000 -0.000000 -0.000000 -0.000001 -0.000001 2.161432 3.528076 9.834386 -10.433161 -2.815978 41.124856 0.000010 42.922722 -0.000013 -3.284261 20.774739 -6.672265 -6.699795 -5.004277 -7.074794 5.951950 -27.933986 -3.061967 0.000000 -0.000001 -0.000002 1.302930 -5.348463 70.058514 0.469083 -2.515075 21.126443 -0.000002 0.000000 0.000004 1.765524 -4.810716 53.320039 1.518235 -4.341617 38.533868 0.000001 0.000002 -0.000002 1.765524 -4.810698 53.320029 1.518240 -4.341618 38.533875 -0.000001 -0.000003 0.000003 1.765525 -4.810693 53.320036 1.518231 -4.341605 38.533854 0.000002 -0.000000 0.000000 -0.000000 -0.000001 -0.000001 -0.000001 0.000000 -0.000001 -0.000001 0.000000 -0.000001 -0.000001 0.000000 -0.000001 -0.000001 0.000000 -0.000001 -0.000001 0.000000 -0.000000 -0.000004 0.000000 -0.000000 -0.000001 0.000000 -0.000001 -0.000001 0.000000 -0.000000 -0.000004 0.000000 -0.000000 0.000001 0.000000 0.000000 0.000001 0.000000 0.000000 0.000000 0.000002 -0.000000 
-1.118116 73.986572 248.410583 -1.647547 294.204825 -1.764936 -0.000000 0.000001 0.000000 5.016286 0.931405 -13.994770 37.649099 -3.288567 -6.288077 -11.653113 -10.453614 25.137576 -0.000001 0.000000 -0.000000 -0.000001 0.000000 -0.000000 0.000003 0.000002 0.000001 -36.598046 -2.522411 4.368153 61.881227 6.051280 1.101342 -16.776688 -8.177028 -2.608871 0.000000 0.000000 -0.000001 0.000000 0.000000 -0.000001 -0.000000 -0.000000 -0.000000 14.695167 -5.819400 6.715882 6.470217 -3.066680 3.090464 6.464907 -3.041239 3.127008 14.385825 4.218366 -12.029321 -6.009782 26.145548 -13.520588 -0.000002 0.000001 -0.000002 -0.000002 0.000001 -0.000002 -0.000002 0.000001 -0.000002 2.186156 -3.544734 -3.565130 -0.458555 -12.739841 -44.699524 -0.000014 -38.213764 -0.000002 -6.449868 -7.566070 16.277867 -8.613518 1.819107 8.675744 7.667206 20.534701 -4.354553 -0.000001 0.000000 -0.000002 -3.457896 -0.609716 -45.336245 0.469840 2.504285 -21.248447 -0.000001 -0.000003 -0.000004 -1.494598 0.486322 -38.372891 1.251412 3.963192 -35.035910 0.000002 -0.000001 -0.000000 -1.493410 0.487838 -38.388873 1.250301 3.961627 -35.019855 0.000002 0.000000 -0.000002 1.013985 3.675350 -37.969592 1.264497 -0.102911 -35.441114 -0.000002 -0.000000 0.000001 -0.000001 0.000000 0.000001 2.147699 3.556183 10.539194 -6.873667 -5.618413 45.389131 0.000000 39.809457 -0.000007 0.275241 17.778166 -5.255263 -4.818625 -7.410485 -8.833907 5.837243 -28.225755 -3.501803 0.000000 -0.000000 0.000000 1.723945 -5.556630 71.028496 0.512289 -2.624044 22.090351 0.000001 -0.000002 0.000003 2.228990 -5.180730 54.810434 1.640940 -4.490903 40.127249 0.000001 -0.000002 -0.000004 2.228992 -5.180716 54.810438 1.640927 -4.490908 40.127252 0.000001 0.000000 0.000000 2.228988 -5.180713 54.810434 1.640941 -4.490921 40.127256 -0.000002 -0.000003 -0.000002 0.000000 -0.000001 0.000002 0.000001 0.000000 0.000000 0.000001 0.000000 0.000000 0.000001 0.000000 0.000000 0.000001 0.000000 0.000000 0.000001 0.000000 0.000001 0.000001 0.000000 -0.000000 0.000001 0.000000 0.000000 0.000001 0.000000 0.000001 0.000001 0.000000 -0.000000 0.000000 -0.000000 -0.000000 0.000000 -0.000000 -0.000000 -0.000000 0.000001 0.000000 
-0.807805 74.711540 254.968903 -0.641280 303.854025 -1.226289 0.000000 0.000003 0.000000 6.178486 1.170919 -13.456745 37.698925 -6.912620 -6.230639 4.897077 -12.732822 16.472540 -0.000003 0.000000 0.000001 -0.000003 0.000000 0.000002 0.000003 -0.000001 0.000003 -35.059214 -2.305236 12.215343 49.808653 2.098614 0.882203 -11.737802 7.541374 -5.184369 0.000000 0.000000 -0.000001 0.000000 0.000000 -0.000001 0.000000 -0.000004 0.000002 12.694887 -6.065846 6.404551 5.265097 -3.135419 2.795082 5.263395 -3.095368 2.843093 13.392533 3.478843 -9.379725 -7.087505 23.429244 -12.836764 0.000001 0.000001 -0.000000 0.000001 0.000001 -0.000000 0.000001 0.000001 -0.000000 1.684284 -2.396675 -4.009801 4.120928 -13.326754 -44.336554 -0.000009 -49.649980 -0.000015 3.722024 -8.944760 15.803716 -9.659706 -1.685771 8.657606 7.728843 21.830198 -3.986679 0.000001 0.000001 0.000002 -2.825219 0.048086 -45.409126 0.712404 3.054981 -26.247111 -0.000003 0.000003 0.000000 -1.486524 0.893359 -41.370469 1.598846 4.416204 -39.788731 0.000001 0.000002 -0.000003 -1.485247 0.894798 -41.386483 1.597592 4.414718 -39.772659 0.000003 0.000003 -0.000002 1.186694 3.946426 -40.988952 1.614101 0.347705 -40.169319 -0.000003 -0.000001 -0.000004 -0.000001 -0.000000 0.000001 2.161483 3.252445 11.631028 -3.567730 -5.920352 47.934363 0.000003 39.651229 -0.000023 2.426065 16.165342 -6.005633 -3.857399 -9.021680 -10.937048 6.347334 -28.224536 -3.267472 -0.000002 -0.000003 -0.000001 1.986321 -5.691189 71.861267 0.777938 -3.200792 27.314748 -0.000003 -0.000002 -0.000000 2.635249 -5.505497 58.099379 2.046768 -4.930804 45.065588 0.000002 -0.000003 -0.000003 2.635240 -5.505477 58.099385 2.046757 -4.930824 45.065602 -0.000002 -0.000003 -0.000000 2.635246 -5.505478 58.099385 2.046763 -4.930799 45.065574 0.000001 0.000000 0.000000 0.000000 0.000001 -0.000000 0.000001 -0.000001 -0.000000 0.000001 -0.000001 -0.000000 0.000001 -0.000001 -0.000000 0.000001 -0.000001 -0.000000 0.000001 -0.000001 -0.000000 -0.000001 -0.000000 0.000000 0.000001 -0.000001 -0.000000 0.000001 -0.000001 -0.000000 -0.000001 -0.000000 0.000000 -0.000001 -0.000001 0.000000 -0.000001 -0.000001 0.000000 0.000000 0.000003 0.000000 
-0.402285 74.694756 262.674805 -0.118612 313.951394 -1.825506 0.000000 0.000002 -0.000000 7.338215 -1.710198 -11.857882 36.070639 -2.572778 -5.484922 34.298628 -7.378067 -0.238435 -0.000001 -0.000001 0.000001 -0.000001 -0.000001 0.000002 -0.000002 -0.000003 0.000000 -35.731592 -2.449652 14.145420 45.933172 0.325745 0.581022 -6.460286 13.141520 -8.947745 0.000000 0.000001 0.000000 0.000000 0.000001 0.000000 0.000001 0.000003 0.000000 10.540889 -6.654735 7.134297 3.836440 -3.316759 2.601129 3.835281 -3.264390 2.669234 11.798342 2.764872 -7.028453 -10.207411 22.068809 -11.115103 0.000001 0.000001 -0.000000 0.000001 0.000001 -0.000000 0.000001 0.000001 -0.000000 0.952542 1.194371 -5.782804 6.396642 -15.440840 -49.373983 -0.000008 -56.396206 -0.000005 10.970993 -10.854666 15.163882 -11.640814 -6.395278 7.525766 7.854097 23.087347 -3.775970 0.000001 0.000002 0.000005 -2.349142 0.595073 -45.835139 1.372702 4.130380 -36.754529 0.000000 0.000000 -0.000000 -1.098823 1.746249 -45.020413 2.313186 5.151702 -48.337805 0.000000 0.000000 0.000000 -1.097452 1.747610 -45.036451 2.311701 5.150416 -48.321679 -0.000002 0.000000 -0.000004 1.766520 4.621965 -44.685201 2.330529 1.078787 -48.667731 -0.000004 -0.000001 0.000001 0.000001 0.000002 0.000002 2.081577 2.230115 12.758698 -3.132442 -2.858841 48.249737 0.000013 38.891517 0.000001 2.081622 15.447316 -7.454480 -3.342705 -9.021667 -11.448827 7.048702 -28.093461 -2.731297 0.000001 0.000001 0.000004 2.144674 -5.616039 69.254860 1.504453 -4.324299 38.351427 -0.000003 -0.000001 0.000005 3.244783 -5.899977 61.489447 2.834714 -5.604548 53.632128 0.000003 -0.000001 0.000001 3.244783 -5.899957 61.489454 2.834710 -5.604554 53.632131 0.000001 0.000001 0.000002 3.244781 -5.899955 61.489441 2.834717 -5.604564 53.632131 -0.000002 -0.000002 -0.000000 -0.000002 0.000001 0.000000 -0.000001 -0.000001 -0.000000 -0.000001 -0.000001 -0.000000 -0.000001 -0.000001 -0.000000 -0.000001 -0.000001 -0.000000 -0.000001 -0.000001 -0.000000 -0.000001 -0.000001 -0.000000 -0.000001 -0.000001 -0.000000 -0.000001 -0.000001 -0.000000 -0.000001 -0.000001 -0.000000 -0.000000 0.000000 0.000000 -0.000000 0.000000 0.000000 0.000000 0.000002 -0.000000 
